HIERARCHY
ROOT Hips
{
	OFFSET 0.000000 83.214638 0.000000
	CHANNELS 6 Xposition Yposition Zposition Xrotation Yrotation Zrotation
	JOINT Pelvis
	{
		OFFSET 0.000000 0.000000 0.000000
		CHANNELS 3 Xrotation Yrotation Zrotation
		JOINT LeftUpLeg
		{
			OFFSET 8.479700 -4.795502 -0.379100
			CHANNELS 3 Xrotation Yrotation Zrotation
			JOINT LeftLeg
			{
				OFFSET 0.024144 -32.555107 0.112900
				CHANNELS 3 Xrotation Yrotation Zrotation
				JOINT LeftFoot
				{
					OFFSET -0.024144 -32.638630 -3.012600
					CHANNELS 3 Xrotation Yrotation Zrotation
					JOINT LeftToeBase
					{
						OFFSET 0.970200 -13.225400 11.864200
						CHANNELS 3 Xrotation Yrotation Zrotation
						End Site
						{
							OFFSET 0.000000 12.319262 0.000000
						}
					}
					JOINT LFootTongue
					{
						OFFSET 1.142400 -1.059800 6.665200
						CHANNELS 3 Xrotation Yrotation Zrotation
						End Site
						{
							OFFSET 0.000000 12.319262 0.000000
						}
					}
				}
				JOINT LeftPantLeg
				{
					OFFSET 0.918482 -16.533964 -2.284700
					CHANNELS 3 Xrotation Yrotation Zrotation
					End Site
					{
						OFFSET 0.350399 24.744368 0.000000
					}
				}
			}
		}
		JOINT RightUpLeg
		{
			OFFSET -8.479700 -4.795502 -0.379100
			CHANNELS 3 Xrotation Yrotation Zrotation
			JOINT RightLeg
			{
				OFFSET -0.023144 -32.555092 0.112900
				CHANNELS 3 Xrotation Yrotation Zrotation
				JOINT RightFoot
				{
					OFFSET 0.023144 -32.638641 -3.012700
					CHANNELS 3 Xrotation Yrotation Zrotation
					JOINT RightToeBase
					{
						OFFSET -0.970200 -13.225400 11.864200
						CHANNELS 3 Xrotation Yrotation Zrotation
						End Site
						{
							OFFSET 0.000000 12.319244 0.000000
						}
					}
					JOINT RFootTongue
					{
						OFFSET -1.142200 -1.059800 6.665200
						CHANNELS 3 Xrotation Yrotation Zrotation
						End Site
						{
							OFFSET 0.000000 12.319243 0.000000
						}
					}
				}
				JOINT RightPantLeg
				{
					OFFSET -0.919482 -16.533978 -2.284800
					CHANNELS 3 Xrotation Yrotation Zrotation
					End Site
					{
						OFFSET -0.350400 24.744419 0.000000
					}
				}
			}
		}
	}
	JOINT Spine
	{
		OFFSET 0.000000 7.722000 1.166200
		CHANNELS 3 Xrotation Yrotation Zrotation
		JOINT Spine1
		{
			OFFSET 0.000000 12.024101 0.248800
			CHANNELS 3 Xrotation Yrotation Zrotation
			JOINT Spine2
			{
				OFFSET 0.000000 11.502998 -0.491200
				CHANNELS 3 Xrotation Yrotation Zrotation
				JOINT Neck
				{
					OFFSET 0.000000 18.430702 -3.123100
					CHANNELS 3 Xrotation Yrotation Zrotation
					JOINT Head
					{
						OFFSET 0.000000 9.051102 1.034000
						CHANNELS 3 Xrotation Yrotation Zrotation
						JOINT HairB
						{
							OFFSET 0.208400 24.786102 24.822300
							CHANNELS 3 Xrotation Yrotation Zrotation
							End Site
							{
								OFFSET 0.000000 32.263779 0.000000
							}
						}
						JOINT HairA
						{
							OFFSET -7.081100 24.428299 23.196600
							CHANNELS 3 Xrotation Yrotation Zrotation
							End Site
							{
								OFFSET 0.000000 32.263779 0.000000
							}
						}
						JOINT Hat
						{
							OFFSET 16.728800 15.048294 -15.439601
							CHANNELS 3 Xrotation Yrotation Zrotation
							End Site
							{
								OFFSET 0.000000 32.263779 0.000000
							}
						}
					}
				}
				JOINT LeftShoulder
				{
					OFFSET 6.197800 13.665199 -4.064700
					CHANNELS 3 Xrotation Yrotation Zrotation
					JOINT LeftArm
					{
						OFFSET 7.778100 -0.187103 -1.709300
						CHANNELS 3 Xrotation Yrotation Zrotation
						JOINT LeftForeArm
						{
							OFFSET 22.049376 0.000000 0.000000
							CHANNELS 3 Xrotation Yrotation Zrotation
							JOINT LeftHand
							{
								OFFSET 23.009392 0.000000 0.000000
								CHANNELS 3 Xrotation Yrotation Zrotation
								JOINT LeftHandThumb1
								{
									OFFSET 3.507191 -2.063065 3.133727
									CHANNELS 3 Xrotation Yrotation Zrotation
									JOINT LeftHandThumb2
									{
										OFFSET 3.101337 -1.790558 1.790558
										CHANNELS 3 Xrotation Yrotation Zrotation
										JOINT LeftHandThumb3
										{
											OFFSET 3.058640 -1.765907 1.765906
											CHANNELS 3 Xrotation Yrotation Zrotation
											End Site
											{
												OFFSET -0.415260 3.926476 -0.049563
											}
										}
									}
								}
								JOINT LeftHandIndex1
								{
									OFFSET 11.334419 -0.901459 3.706815
									CHANNELS 3 Xrotation Yrotation Zrotation
									JOINT LeftHandIndex2
									{
										OFFSET 3.283112 0.000000 0.000000
										CHANNELS 3 Xrotation Yrotation Zrotation
										JOINT LeftHandIndex3
										{
											OFFSET 3.323853 0.000000 0.000000
											CHANNELS 3 Xrotation Yrotation Zrotation
											End Site
											{
												OFFSET -1.135597 3.097809 0.402452
											}
										}
									}
								}
								JOINT LeftHandMiddle1
								{
									OFFSET 11.335861 0.000000 0.000000
									CHANNELS 3 Xrotation Yrotation Zrotation
									JOINT LeftHandMiddle2
									{
										OFFSET 3.410492 0.000000 0.000000
										CHANNELS 3 Xrotation Yrotation Zrotation
										JOINT LeftHandMiddle3
										{
											OFFSET 3.312172 0.000000 0.000000
											CHANNELS 3 Xrotation Yrotation Zrotation
											End Site
											{
												OFFSET -1.150200 3.080154 0.400270
											}
										}
									}
								}
								JOINT LeftHandRing1
								{
									OFFSET 11.514786 -0.013176 -3.003090
									CHANNELS 3 Xrotation Yrotation Zrotation
									JOINT LeftHandRing2
									{
										OFFSET 3.053307 0.000000 0.000000
										CHANNELS 3 Xrotation Yrotation Zrotation
										JOINT LeftHandRing3
										{
											OFFSET 3.295807 0.000000 0.000000
											CHANNELS 3 Xrotation Yrotation Zrotation
											End Site
											{
												OFFSET -1.281006 3.013344 0.375733
											}
										}
									}
								}
								JOINT LeftHandPinky1
								{
									OFFSET 10.518692 -0.960396 -5.730441
									CHANNELS 3 Xrotation Yrotation Zrotation
									JOINT LeftHandPinky2
									{
										OFFSET 2.861649 0.000000 0.000000
										CHANNELS 3 Xrotation Yrotation Zrotation
										JOINT LeftHandPinky3
										{
											OFFSET 2.863380 0.000000 0.000000
											CHANNELS 3 Xrotation Yrotation Zrotation
											End Site
											{
												OFFSET -0.843597 2.711159 0.369971
											}
										}
									}
								}
							}
							JOINT LSleeve
							{
								OFFSET 6.676277 -0.344902 -1.011730
								CHANNELS 3 Xrotation Yrotation Zrotation
								End Site
								{
									OFFSET 0.000000 14.885353 0.000000
								}
							}
						}
					}
				}
				JOINT RightShoulder
				{
					OFFSET -6.197800 13.665199 -4.064700
					CHANNELS 3 Xrotation Yrotation Zrotation
					JOINT RightArm
					{
						OFFSET -7.778100 -0.187103 -1.709300
						CHANNELS 3 Xrotation Yrotation Zrotation
						JOINT RightForeArm
						{
							OFFSET -22.049376 0.000000 0.000000
							CHANNELS 3 Xrotation Yrotation Zrotation
							JOINT RightHand
							{
								OFFSET -23.009392 0.000000 0.000000
								CHANNELS 3 Xrotation Yrotation Zrotation
								JOINT RightHandThumb1
								{
									OFFSET -3.507191 -2.063065 3.133727
									CHANNELS 3 Xrotation Yrotation Zrotation
									JOINT RightHandThumb2
									{
										OFFSET -3.101337 -1.790558 1.790558
										CHANNELS 3 Xrotation Yrotation Zrotation
										JOINT RightHandThumb3
										{
											OFFSET -3.058640 -1.765907 1.765906
											CHANNELS 3 Xrotation Yrotation Zrotation
											End Site
											{
												OFFSET 0.415260 3.926476 -0.049563
											}
										}
									}
								}
								JOINT RightHandIndex1
								{
									OFFSET -11.334419 -0.901459 3.706815
									CHANNELS 3 Xrotation Yrotation Zrotation
									JOINT RightHandIndex2
									{
										OFFSET -3.283112 0.000000 0.000000
										CHANNELS 3 Xrotation Yrotation Zrotation
										JOINT RightHandIndex3
										{
											OFFSET -3.323853 0.000000 0.000000
											CHANNELS 3 Xrotation Yrotation Zrotation
											End Site
											{
												OFFSET 1.135597 3.097809 0.402452
											}
										}
									}
								}
								JOINT RightHandMiddle1
								{
									OFFSET -11.335861 0.000000 0.000000
									CHANNELS 3 Xrotation Yrotation Zrotation
									JOINT RightHandMiddle2
									{
										OFFSET -3.410492 0.000000 0.000000
										CHANNELS 3 Xrotation Yrotation Zrotation
										JOINT RightHandMiddle3
										{
											OFFSET -3.312172 0.000000 0.000000
											CHANNELS 3 Xrotation Yrotation Zrotation
											End Site
											{
												OFFSET 1.150200 3.080154 0.400270
											}
										}
									}
								}
								JOINT RightHandRing1
								{
									OFFSET -11.514786 -0.013176 -3.003090
									CHANNELS 3 Xrotation Yrotation Zrotation
									JOINT RightHandRing2
									{
										OFFSET -3.053307 0.000000 0.000000
										CHANNELS 3 Xrotation Yrotation Zrotation
										JOINT RightHandRing3
										{
											OFFSET -3.295807 0.000000 0.000000
											CHANNELS 3 Xrotation Yrotation Zrotation
											End Site
											{
												OFFSET 1.281006 3.013344 0.375733
											}
										}
									}
								}
								JOINT RightHandPinky1
								{
									OFFSET -10.518692 -0.960396 -5.730441
									CHANNELS 3 Xrotation Yrotation Zrotation
									JOINT RightHandPinky2
									{
										OFFSET -2.861649 0.000000 0.000000
										CHANNELS 3 Xrotation Yrotation Zrotation
										JOINT RightHandPinky3
										{
											OFFSET -2.863380 0.000000 0.000000
											CHANNELS 3 Xrotation Yrotation Zrotation
											End Site
											{
												OFFSET 0.843597 2.711159 0.369971
											}
										}
									}
								}
							}
							JOINT RSleeve
							{
								OFFSET -6.676277 -0.344902 -1.011730
								CHANNELS 3 Xrotation Yrotation Zrotation
								End Site
								{
									OFFSET 0.000000 14.885353 0.000000
								}
							}
						}
					}
				}
				JOINT Backpack
				{
					OFFSET 0.000000 -2.471497 36.677502
					CHANNELS 3 Xrotation Yrotation Zrotation
					End Site
					{
						OFFSET 0.000000 20.427315 0.000000
					}
				}
				JOINT Hood
				{
					OFFSET 0.000000 18.754097 -10.431000
					CHANNELS 3 Xrotation Yrotation Zrotation
					JOINT Hood1
					{
						OFFSET 0.000000 -5.011002 -7.685901
						CHANNELS 3 Xrotation Yrotation Zrotation
						End Site
						{
							OFFSET 0.000000 9.175140 0.000000
						}
					}
				}
				JOINT LHoodieString
				{
					OFFSET 5.250500 16.397697 3.089900
					CHANNELS 3 Xrotation Yrotation Zrotation
					JOINT LHoodieString1
					{
						OFFSET 0.257700 -6.364304 3.694600
						CHANNELS 3 Xrotation Yrotation Zrotation
						JOINT LHoodieString2
						{
							OFFSET 0.000000 -9.643799 2.679100
							CHANNELS 3 Xrotation Yrotation Zrotation
							End Site
							{
								OFFSET 0.000000 10.009018 0.000000
							}
						}
					}
				}
				JOINT RHoodieString
				{
					OFFSET -5.250500 16.397697 3.089900
					CHANNELS 3 Xrotation Yrotation Zrotation
					JOINT RHoodieString1
					{
						OFFSET -0.257700 -6.364304 3.694600
						CHANNELS 3 Xrotation Yrotation Zrotation
						JOINT RHoodieString2
						{
							OFFSET 0.000000 -9.643799 2.679100
							CHANNELS 3 Xrotation Yrotation Zrotation
							End Site
							{
								OFFSET 0.000000 10.009018 0.000000
							}
						}
					}
				}
			}
			JOINT LBackpack_Strap
			{
				OFFSET 15.223200 -7.719803 -6.610900
				CHANNELS 3 Xrotation Yrotation Zrotation
				End Site
				{
					OFFSET 0.000000 16.040596 0.000000
				}
			}
			JOINT RBackpack_Strap
			{
				OFFSET -15.223000 -7.719803 -6.610900
				CHANNELS 3 Xrotation Yrotation Zrotation
				End Site
				{
					OFFSET 0.000000 16.040596 0.000000
				}
			}
		}
	}
	JOINT BoyFacialAnim_Joint
	{
		OFFSET 1.000000 -82.208099 -1.550900
		CHANNELS 3 Xrotation Yrotation Zrotation
		End Site
		{
			OFFSET 0.000000 30.012791 0.000000
		}
	}
}
MOTION
Frames: 5
Frame Time: 0.033333
6.497024 79.164963 46.535336 -15.497935 -41.320350 -2.357320 0.000000 -0.000002 0.000000 1.481884 26.546278 -11.499592 25.825662 -9.923465 -2.223084 -11.870946 3.093339 16.782045 -0.000000 0.000000 -0.000000 -0.000000 0.000000 -0.000000 -0.000001 -0.000000 0.000000 -22.567372 11.410517 -9.866581 54.949985 1.415998 -9.791955 8.543140 -3.514382 6.617205 -0.000003 -0.000001 -0.000001 -0.000003 -0.000001 -0.000001 0.000001 0.000003 -0.000001 12.904002 -1.254828 3.443438 1.952051 -1.781357 0.779174 1.932145 -1.259698 0.649571 11.690110 13.446229 -6.572663 15.242853 9.916622 4.394295 -0.000000 0.000001 0.000002 -0.000000 0.000001 0.000002 -0.000000 0.000001 0.000002 0.200666 -10.824334 -13.875465 -46.696566 -15.804841 -37.375464 0.000021 -58.104679 0.000017 -137.861003 -1.729178 21.174239 1.567994 0.456397 2.719343 19.473190 -1.474932 7.636921 -0.000002 -0.000002 0.000002 -1.477617 2.643585 -39.995259 2.913779 5.062579 -59.823653 0.000002 0.000002 -0.000002 0.592394 5.658927 -52.635593 3.361223 5.296537 -64.777022 0.000001 0.000002 -0.000003 -0.059179 5.758262 -61.243923 4.390702 5.666513 -75.522856 -0.000003 -0.000001 -0.000002 1.367377 6.720155 -65.591358 4.232354 5.623459 -73.912947 -0.000000 0.000000 -0.000000 0.000001 -0.000000 0.000001 0.502004 5.471182 11.998503 -35.424213 66.971904 59.725223 -0.043003 92.699225 0.043003 -51.525984 -28.730696 -26.741371 8.377139 -4.904139 11.021988 21.620211 -18.183890 -18.379209 0.000002 -0.000000 0.000000 -0.818378 1.972171 10.693955 0.753198 -2.541286 33.012685 -0.000000 -0.000002 0.000003 3.539416 -7.340513 50.555636 6.238598 -4.381010 109.870587 -0.000000 0.000001 -0.000002 -3.136046 -2.595123 55.923659 5.379601 -4.600911 98.933603 0.000000 -0.000000 0.000004 -3.584390 -3.428157 64.056321 4.229090 -4.637534 84.720253 -0.000000 -0.000001 -0.000002 -0.000000 -0.000002 0.000000 0.000000 -0.000001 0.000001 0.000000 -0.000001 0.000001 0.000000 -0.000001 0.000001 0.000000 -0.000001 0.000001 0.000000 -0.000001 0.000001 0.000001 -0.000003 0.000001 0.000000 -0.000001 0.000001 0.000000 -0.000001 0.000001 0.000001 -0.000003 0.000001 -0.000001 0.000003 -0.000002 -0.000001 0.000003 -0.000002 0.000000 -0.000002 0.000000 
6.586297 79.261505 46.894386 -15.161181 -40.618821 -2.105799 -0.000000 0.000002 -0.000001 1.834823 26.273275 -11.966258 25.355662 -9.937802 -1.974497 -11.455507 2.690792 16.708265 -0.000000 0.000000 -0.000001 -0.000000 0.000000 -0.000001 -0.000000 -0.000001 -0.000001 -24.153296 11.940127 -7.466758 53.026225 0.453039 -9.792534 6.487937 -3.937712 7.275716 0.000001 -0.000000 0.000001 0.000001 -0.000000 0.000001 0.000001 0.000003 -0.000000 12.971339 -1.765266 3.632383 1.964191 -1.877723 0.783930 1.943636 -1.266432 0.628413 12.628753 13.455335 -6.697982 16.142558 9.882550 4.339351 0.000001 0.000000 -0.000003 0.000001 0.000000 -0.000003 0.000001 0.000000 -0.000003 0.202342 -10.862506 -13.842343 -47.708690 -16.525926 -37.411108 0.000003 -55.607568 0.000001 -137.758044 -0.297572 20.851674 1.567994 0.456391 2.719342 19.473190 -1.474930 7.636922 -0.000002 -0.000000 -0.000001 -1.882822 2.129423 -39.817015 2.947087 5.081761 -60.200522 0.000002 -0.000001 -0.000002 0.405916 5.507056 -52.453162 3.387144 5.308639 -65.057477 0.000007 0.000002 -0.000003 -0.074382 5.736786 -61.061413 4.422092 5.674475 -75.840399 0.000001 0.000002 -0.000002 2.216817 7.072461 -64.435431 4.422631 5.674638 -75.845781 -0.000002 -0.000002 0.000001 -0.000001 0.000002 0.000004 0.504854 5.415084 11.945320 -38.063534 67.690856 62.204418 -0.008257 90.959446 0.008145 -51.665146 -28.145593 -26.703907 8.377142 -4.904140 11.021988 21.620214 -18.183893 -18.379209 0.000003 -0.000001 0.000001 -1.101420 1.407123 15.159508 1.422374 -3.352189 45.974082 0.000000 -0.000001 -0.000002 3.413059 -7.186261 51.650246 6.296806 -4.359596 110.634667 0.000001 0.000000 0.000005 -3.349047 -2.600431 57.010561 5.440861 -4.590897 99.698154 0.000001 0.000000 0.000002 -3.996455 -3.303939 64.593843 4.058860 -4.618662 82.610496 -0.000000 -0.000000 0.000004 0.000001 0.000001 -0.000000 -0.000000 0.000000 -0.000000 -0.000000 0.000000 -0.000000 -0.000000 0.000000 -0.000000 -0.000000 0.000000 -0.000000 -0.000000 0.000000 -0.000001 -0.000000 0.000000 0.000000 -0.000000 0.000000 -0.000000 -0.000000 0.000000 -0.000001 -0.000000 0.000000 0.000000 -0.000000 0.000000 -0.000000 -0.000000 0.000000 -0.000000 -0.000000 0.000002 -0.000001 
6.654788 79.338799 47.242844 -14.795315 -39.546119 -1.792695 -0.000001 -0.000001 0.000001 2.043159 25.974021 -12.281561 25.136230 -9.963698 -1.781255 -10.992037 1.953620 16.621428 -0.000000 -0.000001 0.000000 -0.000000 -0.000001 0.000000 -0.000000 -0.000003 0.000001 -25.427512 12.198063 -5.430139 50.402787 -0.509305 -9.794506 4.779734 -4.227824 8.325339 -0.000000 0.000002 0.000000 -0.000000 0.000002 0.000000 0.000000 0.000001 0.000000 13.004473 -2.486048 3.815788 1.973016 -2.015691 0.785460 1.952707 -1.372714 0.620299 13.152119 13.393343 -6.449612 16.972790 9.923517 4.267562 -0.000002 0.000001 -0.000000 -0.000002 0.000001 -0.000000 -0.000002 0.000001 -0.000000 0.194967 -11.007283 -13.873249 -48.768360 -17.269795 -37.253470 -0.000003 -52.849934 -0.000008 -138.186939 1.151825 19.577496 1.567994 0.456394 2.719342 19.473189 -1.474938 7.636923 -0.000003 0.000001 0.000001 -1.465032 2.659424 -40.000839 2.912735 5.061989 -59.811994 -0.000000 -0.000001 -0.000002 0.598174 5.663598 -52.641245 3.360422 5.296167 -64.768327 0.000001 0.000001 -0.000003 -0.058711 5.758916 -61.249537 4.389761 5.666262 -75.513055 0.000004 -0.000001 -0.000002 1.340868 6.709832 -65.627114 4.226521 5.621774 -73.853189 -0.000003 -0.000001 -0.000000 -0.000003 -0.000001 0.000000 0.505176 5.257290 11.859102 -41.924087 68.076181 66.288031 0.000484 88.813243 -0.000505 -50.015662 -27.914677 -25.447379 8.377141 -4.904139 11.021988 21.620216 -18.183891 -18.379209 0.000002 0.000000 0.000000 -1.623875 -0.383764 28.622990 4.267619 -4.640900 85.196501 -0.000000 0.000001 0.000000 2.439575 -6.348572 58.825626 6.571334 -4.246398 114.292315 0.000001 0.000001 -0.000000 -4.799075 -2.842118 64.121201 5.732037 -4.531685 103.358357 -0.000001 0.000000 0.000007 -6.768469 -2.682555 68.120181 3.259087 -4.442806 72.512034 -0.000002 -0.000003 -0.000007 0.000001 -0.000001 0.000002 -0.000000 0.000003 -0.000000 -0.000000 0.000003 -0.000000 -0.000000 0.000003 -0.000000 -0.000000 0.000003 -0.000000 -0.000000 0.000003 -0.000000 -0.000000 -0.000000 0.000001 -0.000000 0.000003 -0.000000 -0.000000 0.000003 -0.000000 -0.000000 -0.000000 0.000001 0.000001 -0.000001 -0.000000 0.000001 -0.000001 -0.000000 -0.000001 -0.000001 0.000001 
6.704234 79.400726 47.605167 -14.510527 -38.261323 -1.481125 0.000000 -0.000000 0.000000 2.243099 25.595115 -12.500050 25.055666 -9.999258 -1.718366 -10.493131 1.068945 16.569972 -0.000000 0.000001 0.000000 -0.000000 0.000001 0.000000 0.000000 0.000000 0.000000 -26.411933 12.309661 -3.688250 47.482556 -1.428201 -9.795786 3.620851 -4.680576 9.350187 0.000000 0.000003 -0.000000 0.000000 0.000003 -0.000000 0.000001 -0.000000 -0.000001 13.057243 -3.283278 3.966780 1.984347 -2.167043 0.782880 1.962863 -1.334105 0.558374 13.168362 13.405798 -6.519780 16.872200 9.930221 4.238259 -0.000001 0.000001 -0.000001 -0.000001 0.000001 -0.000001 -0.000001 0.000001 -0.000001 0.182303 -11.212388 -13.939587 -49.287724 -17.685749 -37.252395 0.000015 -52.075835 0.000017 -138.223317 1.642289 19.310553 1.567995 0.456395 2.719342 19.473194 -1.474934 7.636921 -0.000002 -0.000001 0.000001 -0.531865 3.814542 -40.420295 2.837650 5.017742 -58.957291 -0.000005 -0.000000 -0.000000 1.024810 6.003604 -53.057323 3.301881 5.268308 -64.132280 0.000003 -0.000000 0.000002 -0.023959 5.807335 -61.663501 4.318764 5.647543 -74.792921 -0.000003 -0.000001 -0.000002 -0.640658 6.048357 -68.256614 3.802322 5.481851 -69.470851 -0.000003 -0.000001 -0.000004 -0.000001 0.000000 0.000000 0.504039 5.311515 11.893104 -42.277587 68.105483 66.429020 0.001279 88.630229 -0.001348 -49.798325 -27.838886 -25.634392 8.377141 -4.904140 11.021990 21.620214 -18.183893 -18.379211 0.000000 0.000001 0.000002 -1.617253 -0.339934 28.299540 4.191317 -4.633868 84.252781 -0.000001 -0.000000 0.000002 1.392621 -5.880519 65.240396 6.806425 -4.132551 117.509293 0.000000 0.000001 -0.000000 -6.135270 -3.373680 70.449303 5.984604 -4.464384 106.577992 -0.000000 0.000000 0.000000 -9.333530 -2.416440 71.263544 2.590660 -4.174498 63.632925 -0.000000 -0.000000 0.000000 0.000001 0.000001 -0.000001 0.000000 0.000001 -0.000002 0.000000 0.000001 -0.000002 0.000000 0.000001 -0.000002 0.000000 0.000001 -0.000002 0.000000 0.000001 -0.000001 0.000001 0.000001 -0.000000 0.000000 0.000001 -0.000002 0.000000 0.000001 -0.000001 0.000001 0.000001 -0.000000 -0.000001 -0.000003 -0.000001 -0.000001 -0.000003 -0.000001 0.000000 -0.000000 0.000000 
6.734943 79.442642 47.989273 -14.357742 -37.020804 -1.200208 -0.000000 0.000001 -0.000001 2.489534 25.203331 -12.713422 25.106756 -9.767591 -1.681953 -10.011080 -0.020752 16.446843 0.000000 -0.000003 0.000000 0.000000 -0.000003 0.000000 -0.000001 -0.000000 -0.000000 -27.146252 12.249062 -2.171746 44.511557 -2.312603 -9.796575 2.856048 -5.304161 10.098678 0.000001 -0.000002 0.000000 0.000001 -0.000002 0.000000 -0.000000 -0.000001 -0.000000 13.153209 -3.998326 4.077658 2.000339 -2.301010 0.777320 1.999998 -2.947227 1.018156 16.048337 13.884391 -8.890637 13.612180 10.255772 3.954039 0.000002 -0.000001 -0.000001 0.000002 -0.000001 -0.000001 0.000002 -0.000001 -0.000001 0.168887 -11.410821 -14.014788 -46.810715 -13.083763 -35.313365 0.000067 -62.922530 0.000063 -137.562797 -2.818121 22.594787 1.567993 0.456398 2.719342 19.473192 -1.474933 7.636923 0.000002 0.000001 0.000002 0.421126 4.954261 -40.860616 2.763252 4.972353 -58.102684 -0.000003 -0.000001 -0.000004 1.456440 6.337512 -53.476549 3.243633 5.239767 -63.496348 0.000003 0.000000 0.000000 0.011184 5.855443 -62.077465 4.248021 5.627924 -74.072889 -0.000002 -0.000001 -0.000002 -2.687084 5.578435 -70.890117 3.390231 5.310060 -65.090842 0.000000 -0.000000 -0.000000 -0.000001 -0.000001 -0.000002 0.502890 5.364263 11.928271 -37.347918 67.528591 61.982280 0.018670 93.802280 -0.018543 -50.005143 -28.565222 -26.705852 8.377141 -4.904141 11.021990 21.620218 -18.183891 -18.379213 0.000001 0.000001 -0.000002 -1.544997 0.050958 25.409453 3.517613 -4.515907 75.821561 -0.000000 0.000001 0.000004 1.109557 -5.808059 66.850640 6.823535 -4.123594 117.747079 0.000001 0.000001 0.000002 -6.470507 -3.555084 72.032623 6.003123 -4.458852 106.815990 -0.000000 0.000001 -0.000001 -9.987681 -2.393230 72.049173 2.543021 -4.150614 62.976748 0.000001 -0.000002 -0.000003 -0.000001 -0.000001 -0.000001 0.000000 -0.000001 0.000000 0.000000 -0.000001 0.000000 0.000000 -0.000001 0.000000 0.000000 -0.000001 0.000000 0.000000 -0.000001 -0.000000 0.000000 -0.000002 -0.000001 0.000000 -0.000001 0.000000 0.000000 -0.000001 -0.000000 0.000000 -0.000002 -0.000001 -0.000000 -0.000002 -0.000000 -0.000000 -0.000002 -0.000000 -0.000000 0.000001 -0.000001 
